<?xml version="1.0" encoding="utf-8"?>
<!-- Generator: Adobe Illustrator 18.0.0, SVG Export Plug-In . SVG Version: 6.00 Build 0)  -->
<!DOCTYPE svg PUBLIC "-//W3C//DTD SVG 1.1//EN" "http://www.w3.org/Graphics/SVG/1.1/DTD/svg11.dtd">
<svg version="1.1" id="Layer_1" xmlns="http://www.w3.org/2000/svg" xmlns:xlink="http://www.w3.org/1999/xlink" x="0px" y="0px"
	 viewBox="0 0 2048 1536" enable-background="new 0 0 2048 1536" xml:space="preserve">
<g>
	<g>
		<g>
			<path fill="#FFFFFF" d="M860.5,334.4l19.2-8.7c0,0,26.5,9.6,38.4,52.9l-13.9,2.4C904.3,381,896,338,860.5,334.4z"/>
			<g>
				<path fill="#FFFFFF" d="M29.9,458.6l446.9-167.8c0.6-0.2,1.3-0.4,2-0.4l500.9-23c5.2-0.2,7.4,4.6,3.2,6.8L555.1,490.1
					c-1,0.5-2.1,0.7-3.2,0.7L32,465.7C26.8,465.4,25.4,460.4,29.9,458.6z"/>
				<g>
					<path fill="#E8E9EA" d="M101,446.4l381.1-143.1c0.5-0.2,1.1-0.3,1.7-0.3l427.2-19.7c4.4-0.2,6.4,3.9,2.8,5.8L548.9,473.2
						c-0.8,0.4-1.8,0.6-2.8,0.6l-443.4-21.3C98.3,452.2,97.1,447.9,101,446.4z"/>
					<path fill="#FFFFFF" d="M277.4,492.3l281.6,8.4c0.7,0,1.4-0.1,2-0.4l234.1-113.8c2-1,4.8-0.1,5.1,1.7
						c3,19.8,15.3,110.8-9.1,148.9c-0.7,1.1-2.4,1.6-4,1.2c-25.1-6.1-220.2-47.8-392.9,80.7c-1,0.7-2.4,0.9-3.6,0.5
						c-9.9-3.2-53.4-22.4-116.2-123.9C273.3,494.1,275,492.2,277.4,492.3z"/>
					<ellipse fill="#FFFFFF" cx="913.2" cy="394.3" rx="22.8" ry="16.6"/>
				</g>
			</g>
		</g>
		<path fill="#FFFFFF" d="M905.2,409.1c0,0-25.2,31.5-5.8,84l12.5-6.7l2.3,16.4l10-16.6l6.9,12.4l4.1-18.3l10.4,10
			c0,0,9.2-44.4-20.8-82.7L905.2,409.1z"/>
	</g>
	<text transform="matrix(1.3771 0 0 1 322.3159 991.3818)" enable-background="new    "><tspan x="0" y="0" fill="#FFFFFF" font-family="'ArialMT'" font-size="605.8943">GPA</tspan><tspan x="0" y="240" fill="#FFFFFF" font-family="'ArialMT'" font-size="200">    Calculator</tspan></text>
</g>
</svg>
