<?xml version="1.0" encoding="utf-8"?>
<!-- Generator: Adobe Illustrator 18.0.0, SVG Export Plug-In . SVG Version: 6.00 Build 0)  -->
<!DOCTYPE svg PUBLIC "-//W3C//DTD SVG 1.1//EN" "http://www.w3.org/Graphics/SVG/1.1/DTD/svg11.dtd">
<svg version="1.1" id="Layer_1" xmlns="http://www.w3.org/2000/svg" xmlns:xlink="http://www.w3.org/1999/xlink" x="0px" y="0px"
	 viewBox="0 0 1826 1024" enable-background="new 0 0 1826 1024" xml:space="preserve">
<g>
	<g>
		<g>
			<path fill="#FFFFFF" d="M764,65.6l17.5-8.5c0,0,24,9.6,34.9,52.8l-12.7,2.4C804.3,112.1,796.4,69.3,764,65.6z"/>
			<g>
				<path fill="#FFFFFF" d="M4.8,189.1L413.5,22.2c0.4,0,1.3-0.5,1.8-0.5L873.3-1c4.8,0,6.6,4.7,3,6.6L485.2,220.5
					c-0.9,0.5-1.8,0.5-3,0.5L6.5,195.8C1.7,196.3,0.5,191,4.8,189.1z"/>
				<g>
					<path fill="#E8E9EA" d="M69.9,177.3L418.3,34.6c0.4,0,0.9-0.5,1.8-0.5l390.8-19.5c3.9,0,5.7,3.8,2.7,5.7L479.8,203.8
						c-0.9,0.5-1.8,0.5-2.7,0.5L71.7,182.9C67.4,182.9,65.9,178.7,69.9,177.3z"/>
					<path fill="#FFFFFF" d="M231,222.9l257.6,8.5c0.4,0,1.3,0,1.8-0.5l213.9-113.1c1.8-0.9,4.3,0,4.8,1.9
						c2.7,19.5,14,110.3-8.2,148.3c-0.4,0.9-2.1,1.4-3.6,1.4c-23.1-6.1-201.2-47.6-359.3,80.3c-0.9,0.5-2.1,0.9-3.6,0.5
						c-9.1-3.3-48.8-22.3-106.1-123.2C227.1,224.8,228.9,222.9,231,222.9z"/>
					<ellipse fill="#FFFFFF" cx="812.2" cy="125.4" rx="20.9" ry="16.6"/>
				</g>
			</g>
		</g>
		<path fill="#FFFFFF" d="M805.2,140.2c0,0-23.1,31.4-5.2,83.6l11.3-6.6l2.1,16.2l9.1-16.6l6.1,12.4l3.9-18.1l9.7,10
			c0,0,8.2-44.2-19.1-82.2L805.2,140.2z"/>
	</g>
	<text transform="matrix(1.2649 0 0 1 272.0992 719.6318)" fill="#FFFFFF" font-family="'ArialMT'" font-size="603.1564">GPA</text>
	<text transform="matrix(1.2649 0 0 1 272.0992 958.5498)" fill="#FFFFFF" font-family="'ArialMT'" font-size="199.0963">    Calculator</text>
</g>
</svg>
